<svg xmlns="http://www.w3.org/2000/svg" viewBox="0 0 572.76 95.94"><defs><style>.cls-1{fill:#fff;}</style></defs><title>himynameisjanis</title><g id="Layer_2" data-name="Layer 2"><g id="Layer_1-2" data-name="Layer 1"><path class="cls-1" d="M28.39,46.66a2.7,2.7,0,0,0,.23-1.58c-1.19.85-2.37,1.64-3.56,2.48a119.89,119.89,0,0,0-16.6,15l-.34.33c-2.26,2.38-3,2.6-5.14,1.19-3-2-3.5-3.84-2.54-6.27,1.75-4.4,4.29-8.36,6.66-12.42C15.46,31.3,24.38,17.46,34,4.14A28,28,0,0,1,36.64.92C37.77-.32,38.56-.27,40.08.86s1.87,2,1,3.45c-5,8.75-10.67,17.11-15.81,25.8-3.67,6.1-7.29,12.2-10.9,18.36l10.45-6.95c1-.62,1.92-1.18,2.88-1.81,1.35-.9,2.71-1.35,4.18-.39s2.82,2.31,2.82,4.4a13.72,13.72,0,0,1-.57,3.73,68.16,68.16,0,0,0-1.8,7.4c-.28,1.58-.28,1.64,1.24,1.24,5.36-1.3,10.28-3.67,15.25-6a2.14,2.14,0,0,1,3.1.85c.4.51.46,1-.17,1.41a78.31,78.31,0,0,1-15.41,8c-5.09,2-9.72-2.93-9.38-7.11A29.84,29.84,0,0,1,28.39,46.66Z"/><path class="cls-1" d="M50.13,53.15A34.39,34.39,0,0,1,56,37.51c1.18-1.75,2-1.92,4-.9,2.48,1.35,2.94,2.31,2.09,5C61,45,59.9,48.41,58.83,51.74c-.17.51-.23,1-.45,1.81.79-.4,1.35-.68,1.92-1,5.7-3.05,11.35-6.21,17-9.26a23.52,23.52,0,0,1,5.08-2.09,3.14,3.14,0,0,1,1.92.12c.62.33,1.35.67,1.41,1.46s-.68.85-1.13,1.13C78.2,48.07,72.21,52.7,66,57.05a32.91,32.91,0,0,1-6.15,3.5C55.1,62.42,49.45,58.18,50.13,53.15ZM74.36,25.77c.45.56.45,1-.4,1.18a35.38,35.38,0,0,0-9.48,4c-1.64.9-4.63-.34-5.2-2.09-.34-1,.45-1.47,1.07-1.81a22.58,22.58,0,0,1,8.7-2.76c.45-.06,1-.06,1.41-.12A3.91,3.91,0,0,1,74.36,25.77Z"/><path class="cls-1" d="M109.65,54.4a24.78,24.78,0,0,1,3-8.93c-.29-.16-.4.06-.57.17l-.34.34c-3.16,3.05-6.1,6.33-9,9.55-.34.34-.62.62-.9,1-.9,1-1.81,1.86-3.28,1.24s-2.76-1.7-2.93-3.56A15.45,15.45,0,0,1,96.78,47c0-.23.28-.45.11-.85a83.93,83.93,0,0,0-6.16,6.38c-2.71,3.11-5.3,6.27-8,9.38-1.92,2.2-3.16,2.31-5.7.79-2.77-1.7-3.33-3.11-2.48-6.27a40.45,40.45,0,0,1,2.93-7.51,90,90,0,0,1,7.06-11.63c1.07-1.53,1.81-1.7,3.45-.85,2.54,1.24,3,2.37,1.92,5C88.93,43.61,88,45.76,87,48c0,.06.11.06.17.11C89.43,46,91.64,44,93.9,41.86a62.5,62.5,0,0,1,6.77-5.53c2-1.42,5.37-.17,6.1,2.14a3.19,3.19,0,0,1-.45,2.37c-1.13,2.55-2.26,5-3.39,7.51a2,2,0,0,0-.22,1.19c2.14-2.09,4.29-4.12,6.49-6.21a72.81,72.81,0,0,1,7-6.16c1.58-1.13,2.37-1.13,3.89-.05,1.36,1,1.7,1.8,1.08,3.67-1.08,3.1-2.26,6.15-3.34,9.2a27.37,27.37,0,0,0-1.52,5.42,4.22,4.22,0,0,0,1.64-1c5-3.22,9.88-6.6,15.08-9.54,1-.56,2.14-1,3.27-1.58a2.23,2.23,0,0,1,2.43.28c1.3.85,1.35,1.41.17,2.37-6.27,5.14-12.76,10.05-19.26,15-2.94,2.2-5.48,2-8.53-1.19C109.6,58.29,109.48,56.32,109.65,54.4Z"/><path class="cls-1" d="M180.75,41.07c-.34.17-.63.4-1,.56C170,46.15,161,52.19,151.66,57.45A2.85,2.85,0,0,0,150.42,59c-5,9.2-9.37,18.75-13.95,28.12a14.36,14.36,0,0,1-2.31,3.5A7.34,7.34,0,0,1,128.68,93a24.08,24.08,0,0,1-8-1.18c-4.75-1.86-9.6-3.5-13.67-6.72-2.43-1.92-2.43-4,.12-5.87a145.14,145.14,0,0,1,18.41-11.92c6-3.28,11.69-7.06,18-9.77a1.26,1.26,0,0,0,.62-.45c1.19-2.09,2.32-4.24,3.56-6.5-.73.12-1,.57-1.3.85a71.59,71.59,0,0,1-8.07,6.89C136,60,134.61,60,132.4,58.52c-2-1.41-2.59-2.94-2-5.53a23.17,23.17,0,0,1,2-5.14,77.17,77.17,0,0,1,10.22-15.93c1.13-1.3,2.09-1.3,3.78-.11,1.53,1.07,1.75,1.86.85,3.39-2.77,4.85-5.93,9.48-8.47,14.45A17.37,17.37,0,0,0,137.66,52c2.37-1.58,4.46-3.44,6.66-5.19,3.9-3.22,7.57-6.61,11.92-9.21a5.41,5.41,0,0,0,.67-.62,2.62,2.62,0,0,1,4.07.29c.51.62.28,1.07,0,1.69-1.81,3.78-4,7.34-6,11-.22.45-.5,1-.73,1.41a.61.61,0,0,1,.23.29c3.72-2.09,7.51-4.07,11.18-6.27a89.58,89.58,0,0,1,11-5.82c1.3-.56,2.66-1.07,4-.28C181.76,39.94,181.76,40.39,180.75,41.07ZM140.37,63.6c-.62.34-.91.45-1.24.62l-14.86,8.59A61.23,61.23,0,0,0,113,81.28,5.64,5.64,0,0,0,111.45,83c-.45.79-.45,1.41.46,1.81a44.48,44.48,0,0,0,9.31,3.84c2.88.62,5.59.34,7.4-2.49a19.32,19.32,0,0,0,1.7-2.6c2.31-4.68,4.63-9.31,6.94-14C138.22,67.73,139.24,65.81,140.37,63.6Z"/><path class="cls-1" d="M191.19,52.19c.23-2.88,1.19-5.53,1.92-8.64-.57.46-1,.68-1.3,1a165.37,165.37,0,0,0-14.06,13.33,61.79,61.79,0,0,1-4.41,4.46c-2,1.7-4,1-5.87,0s-2.82-2.49-2.6-4.52a19.16,19.16,0,0,1,1.64-5.82A92.39,92.39,0,0,1,177.64,33c1.8-2.37,3.38-2.37,6.15-.45A1.65,1.65,0,0,1,184.3,35c-2.88,5.08-5.7,10.22-8.19,15.53a2.36,2.36,0,0,0-.45,1.35c3.56-3.22,7-6.32,10.45-9.37a33.6,33.6,0,0,1,5.59-4.29,4.81,4.81,0,0,1,4.63-.4c2.71,1.13,3.5,2.49,2.93,5.42-.56,2.77-1.18,5.48-1.8,8.19a14.85,14.85,0,0,0-.23,1.81,4.4,4.4,0,0,0,2-.68c6.66-3.11,13.16-6.55,19.59-10a3,3,0,0,1,3.56.29c1,.67,1,1.13.12,1.92a48.22,48.22,0,0,1-5.2,3.78c-4.29,2.77-8.7,5.37-13.21,7.68a29.61,29.61,0,0,1-3.62,1.58,7.83,7.83,0,0,1-6.89-.9A4.72,4.72,0,0,1,191.19,52.19Z"/><path class="cls-1" d="M234.67,52.19c-.68.57-1,.91-1.41,1.25a97.62,97.62,0,0,1-11.47,9.09c-3.21,2-6.15,1.52-9-.45-2.32-1.53-2.94-3.33-2.32-6a19.87,19.87,0,0,1,2.77-6.32,56.68,56.68,0,0,1,12.93-14.52,15.65,15.65,0,0,1,5.71-3.1,7.91,7.91,0,0,1,7.39,2,2.86,2.86,0,0,1,.79,3.45c-.45,1.18-1,2.31-1.58,3.61a5.08,5.08,0,0,1,4.41,1.19,1.86,1.86,0,0,1,.68,2.37c-.85,2.09-1.64,4.24-2.43,6.38a2.79,2.79,0,0,0-.28,1.7c3-1.59,5.93-3.45,8.8-5.26,3.05-1.92,6-4.06,9.15-5.81,1.25-.62,2.43-1.41,4-.62,1.35.73,1.47,1.24.34,2.26a119,119,0,0,1-14,11.35,27,27,0,0,1-5.25,2.93A7.4,7.4,0,0,1,236.7,57,4.36,4.36,0,0,1,234.67,52.19Zm1.13-8.47c.51-.45.28-.67-.23-.9A1.21,1.21,0,0,1,234.9,41a9.49,9.49,0,0,0,.45-3.55,68.6,68.6,0,0,0-14.63,17.78c.28.06.34.12.4.06A116.23,116.23,0,0,0,235.8,43.72Z"/><path class="cls-1" d="M286.85,54.4a25,25,0,0,1,3-8.93c-.28-.16-.39.06-.56.17l-.34.34c-3.16,3.05-6.1,6.33-9,9.55-.34.34-.62.62-.91,1-.9,1-1.8,1.86-3.27,1.24S273,56,272.84,54.17A15.58,15.58,0,0,1,274,47c.06-.23.28-.45.11-.85a83.78,83.78,0,0,0-6.15,6.38c-2.71,3.11-5.31,6.27-8,9.38-1.92,2.2-3.16,2.31-5.7.79-2.77-1.7-3.34-3.11-2.49-6.27a40.48,40.48,0,0,1,2.94-7.51,88.93,88.93,0,0,1,7.06-11.63c1.07-1.53,1.8-1.7,3.44-.85,2.54,1.24,3,2.37,1.92,5-1,2.2-1.92,4.35-2.88,6.55.06.06.11.06.17.11l6.72-6.21a63.6,63.6,0,0,1,6.78-5.53c2-1.42,5.36-.17,6.1,2.14a3.24,3.24,0,0,1-.45,2.37c-1.13,2.55-2.26,5-3.39,7.51a2,2,0,0,0-.23,1.19c2.15-2.09,4.29-4.12,6.5-6.21a71.49,71.49,0,0,1,6.94-6.16c1.58-1.13,2.37-1.13,3.9-.05,1.35,1,1.69,1.8,1.07,3.67-1.07,3.1-2.26,6.15-3.33,9.2a28.08,28.08,0,0,0-1.53,5.42,4.14,4.14,0,0,0,1.64-1c5-3.22,9.89-6.6,15.08-9.54,1-.56,2.15-1,3.28-1.58a2.21,2.21,0,0,1,2.42.28c1.3.85,1.36,1.41.17,2.37-6.26,5.14-12.76,10.05-19.25,15-2.94,2.2-5.48,2-8.53-1.19C286.79,58.29,286.68,56.32,286.85,54.4Z"/><path class="cls-1" d="M317.06,49.2c-1.25,2.77-2.38,5.54-2.26,8.59.05,1.52.28,1.69,1.69,1.24a67.54,67.54,0,0,0,11.41-5.25c6.61-3.51,13.16-7.06,19.71-10.56a14.21,14.21,0,0,1,3.27-1.3,3.48,3.48,0,0,1,3.45.67c.56.46.73.85,0,1.3C345.24,49.77,336.6,56.2,327,61.23a19.82,19.82,0,0,1-7.73,2.65A11.79,11.79,0,0,1,310.5,61a7.24,7.24,0,0,1-2.31-7.62c1.35-5.82,4.4-10.9,7.74-15.76a27.69,27.69,0,0,1,5.47-6,7.54,7.54,0,0,1,9.83-.28,5.49,5.49,0,0,1,2.37,6.1,27.09,27.09,0,0,1-5.42,11.06C325.7,51.52,322.65,53.38,317.06,49.2Zm3.5-2.43c.45.51.9-.22,1.24-.56a24.49,24.49,0,0,0,6.44-10.9,2.17,2.17,0,0,0,.05-1.47c-.11.06-.28.06-.34.11a34.19,34.19,0,0,0-8.41,10.62C319.09,45.42,320.05,46.21,320.56,46.77Z"/><path class="cls-1" d="M344.27,53.15a34.39,34.39,0,0,1,5.88-15.64c1.18-1.75,2-1.92,4-.9,2.48,1.35,2.93,2.31,2.09,5C355.11,45,354,48.41,353,51.74c-.17.51-.23,1-.45,1.81.79-.4,1.35-.68,1.92-1,5.7-3.05,11.35-6.21,17-9.26a23.52,23.52,0,0,1,5.08-2.09,3.14,3.14,0,0,1,1.92.12c.62.33,1.35.67,1.41,1.46s-.68.85-1.13,1.13c-6.38,4.18-12.37,8.81-18.58,13.16a32.91,32.91,0,0,1-6.15,3.5C349.24,62.42,343.59,58.18,344.27,53.15ZM368.5,25.77c.45.56.45,1-.4,1.18a35.25,35.25,0,0,0-9.48,4c-1.64.9-4.63-.34-5.2-2.09-.34-1,.45-1.47,1.07-1.81a22.53,22.53,0,0,1,8.7-2.76c.45-.06,1-.06,1.41-.12A3.91,3.91,0,0,1,368.5,25.77Z"/><path class="cls-1" d="M390.58,39.83c.79-1,1.63-2,2.48-2.94a1.36,1.36,0,0,1-.22-.28c-4.3,1.64-8.14,3.9-10.9,7.68-1,1.35-.79,1.69.73,2.2a26,26,0,0,1,7.4,3.33,9.82,9.82,0,0,1,2,2,4.18,4.18,0,0,1-.05,5.3,16.78,16.78,0,0,1-4.18,3.56c-3.11,2-6.33,3.84-9.6,5.59-1.75,1-3.17.62-4.52-.9a1.4,1.4,0,0,1,.05-2.26,51.62,51.62,0,0,1,4.3-3.39c2-1.41,4-2.82,6-4.23a14.23,14.23,0,0,0,1.41-1.13c.79-.62,1.86-1.36,1.64-2.38-.17-.79-1.47-.67-2.32-.9-3.38-1-6.6-2.2-9-5-1.81-2.14-2.15-4.4-.51-6.61a22.85,22.85,0,0,1,17.11-9.37c3.33-.23,6,1.47,8,4a3.83,3.83,0,0,1,.11,4.86A22.8,22.8,0,0,1,393,45.36c-1.19.74-2.26-.22-3.11-1a2.06,2.06,0,0,1-.57-2.72A21.27,21.27,0,0,1,390.58,39.83Z"/><path class="cls-1" d="M362.22,87.89a4.16,4.16,0,0,1-.28-5.54,27.1,27.1,0,0,1,6.27-6.1c8.92-7.06,18.81-12.53,29.08-17.34a8.13,8.13,0,0,0,5-5.7,64.65,64.65,0,0,1,5.14-13.55,26.76,26.76,0,0,1,4.13-6.21,3.83,3.83,0,0,1,6.21,1.07,1.22,1.22,0,0,1-.17,1.3,4.62,4.62,0,0,0-1,3.16c0,.23,0,.56-.23.56-1.41-.11-1.41,1.13-1.75,1.87a79.83,79.83,0,0,0-4.12,10.45c-.05.28-.28.5,0,.84.85-.34,1.7-.68,2.54-1.07a189.92,189.92,0,0,1,22.48-8.24,2.52,2.52,0,0,1,2.37.33c.85.74.79,1.13-.28,1.53-5,1.86-10,3.84-14.91,6-4.24,1.92-8.47,3.9-12.76,5.82a2.76,2.76,0,0,0-1.75,2,241.19,241.19,0,0,1-11,29.54,35.7,35.7,0,0,1-2,3.84,6.68,6.68,0,0,1-5.71,3.38c-4.74.23-9.31-.73-13.89-1.69a28.72,28.72,0,0,1-10.39-3.78A10.9,10.9,0,0,1,362.22,87.89Zm6,.62A59.6,59.6,0,0,0,382,91.1c3.56.34,5.87-1.12,7.34-4.34,2.2-4.92,4.18-9.89,6.21-14.86C396.73,69,397.86,66,399,63c-.06-.12-.17-.17-.23-.23-4.18,2.15-8.24,4.46-12.2,7a96.3,96.3,0,0,0-16.09,12.54,12.74,12.74,0,0,0-3.11,4.18C367,87.49,367.14,88.11,368.27,88.51Zm42.92-61.39c-.57-1,.28-1.41,1-1.69a27,27,0,0,1,7.06-1.36c1.36-.11,2.77-.17,4.18-.22a3,3,0,0,1,2.32,1c.28.28.62.56.5,1s-.56.4-.9.45c-1.3.29-2.65.51-3.95.79a45.86,45.86,0,0,0-6.05,1.64,6.2,6.2,0,0,1-1.12.34A3.64,3.64,0,0,1,411.19,27.12Z"/><path class="cls-1" d="M448.12,52.19c-.68.57-1,.91-1.41,1.25a99.3,99.3,0,0,1-11.47,9.09c-3.22,2-6.15,1.52-9-.45-2.32-1.53-2.94-3.33-2.32-6a19.87,19.87,0,0,1,2.77-6.32,56.68,56.68,0,0,1,12.93-14.52,15.61,15.61,0,0,1,5.7-3.1,7.92,7.92,0,0,1,7.4,2,2.86,2.86,0,0,1,.79,3.45c-.45,1.18-1,2.31-1.58,3.61a5.09,5.09,0,0,1,4.41,1.19,1.85,1.85,0,0,1,.67,2.37c-.84,2.09-1.63,4.24-2.42,6.38a2.79,2.79,0,0,0-.29,1.7c3.05-1.59,5.93-3.45,8.81-5.26,3.05-1.92,6-4.06,9.15-5.81,1.24-.62,2.43-1.41,3.95-.62,1.36.73,1.47,1.24.34,2.26a118.09,118.09,0,0,1-14,11.35,27,27,0,0,1-5.25,2.93,7.4,7.4,0,0,1-7.12-.68A4.34,4.34,0,0,1,448.12,52.19Zm1.13-8.47c.51-.45.28-.67-.23-.9a1.22,1.22,0,0,1-.68-1.81,9.27,9.27,0,0,0,.46-3.55,68.6,68.6,0,0,0-14.63,17.78c.28.06.34.12.39.06A115.62,115.62,0,0,0,449.25,43.72Z"/><path class="cls-1" d="M491.15,52.19c.22-2.88,1.18-5.53,1.92-8.64-.57.46-1,.68-1.3,1a165.37,165.37,0,0,0-14.06,13.33c-1.42,1.53-2.83,3-4.41,4.46-2,1.7-3.95,1-5.87,0s-2.83-2.49-2.6-4.52a19.16,19.16,0,0,1,1.64-5.82A92.34,92.34,0,0,1,477.59,33c1.81-2.37,3.39-2.37,6.16-.45a1.66,1.66,0,0,1,.51,2.49c-2.88,5.08-5.71,10.22-8.19,15.53a2.36,2.36,0,0,0-.45,1.35c3.55-3.22,7-6.32,10.44-9.37a34,34,0,0,1,5.59-4.29,4.82,4.82,0,0,1,4.63-.4c2.72,1.13,3.51,2.49,2.94,5.42-.56,2.77-1.18,5.48-1.81,8.19a15,15,0,0,0-.22,1.81,4.32,4.32,0,0,0,2-.68c6.67-3.11,13.16-6.55,19.6-10a3,3,0,0,1,3.56.29c1,.67,1,1.13.11,1.92a49.11,49.11,0,0,1-5.19,3.78c-4.3,2.77-8.7,5.37-13.22,7.68a28.82,28.82,0,0,1-3.61,1.58,7.83,7.83,0,0,1-6.89-.9A4.72,4.72,0,0,1,491.15,52.19Z"/><path class="cls-1" d="M515.65,53.15a34.39,34.39,0,0,1,5.88-15.64c1.18-1.75,2-1.92,4-.9,2.48,1.35,2.93,2.31,2.09,5-1.08,3.39-2.15,6.78-3.22,10.11-.17.51-.23,1-.45,1.81.79-.4,1.35-.68,1.92-1,5.7-3.05,11.35-6.21,17-9.26a23.52,23.52,0,0,1,5.08-2.09,3.14,3.14,0,0,1,1.92.12c.62.33,1.35.67,1.41,1.46s-.68.85-1.13,1.13c-6.38,4.18-12.37,8.81-18.58,13.16a32.68,32.68,0,0,1-6.16,3.5C520.62,62.42,515,58.18,515.65,53.15Zm24.23-27.38c.45.56.45,1-.4,1.18A35.25,35.25,0,0,0,530,31c-1.64.9-4.64-.34-5.2-2.09-.34-1,.45-1.47,1.07-1.81a22.53,22.53,0,0,1,8.7-2.76c.45-.06,1-.06,1.41-.12A3.91,3.91,0,0,1,539.88,25.77Z"/><path class="cls-1" d="M562,39.83c.79-1,1.63-2,2.48-2.94a1.38,1.38,0,0,1-.23-.28c-4.29,1.64-8.13,3.9-10.89,7.68-1,1.35-.79,1.69.73,2.2a26,26,0,0,1,7.4,3.33,9.82,9.82,0,0,1,2,2,4.16,4.16,0,0,1-.06,5.3,16.6,16.6,0,0,1-4.18,3.56c-3.1,2-6.32,3.84-9.59,5.59-1.76,1-3.17.62-4.52-.9a1.4,1.4,0,0,1,0-2.26,51.62,51.62,0,0,1,4.3-3.39c2-1.41,4-2.82,6-4.23a14.23,14.23,0,0,0,1.41-1.13c.79-.62,1.86-1.36,1.64-2.38-.17-.79-1.47-.67-2.32-.9-3.39-1-6.6-2.2-9-5-1.81-2.14-2.15-4.4-.51-6.61a22.85,22.85,0,0,1,17.11-9.37c3.33-.23,6,1.47,8,4A3.84,3.84,0,0,1,572,39a22.73,22.73,0,0,1-7.57,6.32c-1.18.74-2.25-.22-3.1-1a2.06,2.06,0,0,1-.57-2.72A19.19,19.19,0,0,1,562,39.83Z"/></g></g></svg>