<svg xmlns="http://www.w3.org/2000/svg" viewBox="0 0 139.34 56.64"><defs><style>.cls-1{fill:#1d1d1b;}</style></defs><title>Asset 2</title><g id="Layer_2" data-name="Layer 2"><g id="Layer_1-2" data-name="Layer 1"><path class="cls-1" d="M32.69,23a1.64,1.64,0,0,0-2.13-.34,14.76,14.76,0,0,0-2.37,1.74,188.54,188.54,0,0,0-14,13.73C11.56,41,9,44,6.34,47c.48-1.83,1-3.67,1.5-5.51.87-3.29,2-6.57,2.65-10,.29-1.6-.72-2.9-2.56-3.43-1.3-.39-1.59-.2-2.37,1.79C4.21,33.22,3.05,36.65,2,40.14S0,47.15,0,50.87A5.05,5.05,0,0,0,3.68,56a2.53,2.53,0,0,0,2.85-.58,29.13,29.13,0,0,0,3-3.44A228.48,228.48,0,0,1,32.69,24.08C33.12,23.65,33.08,23.31,32.69,23Z"/><path class="cls-1" d="M40.52,26.69a30.05,30.05,0,0,1,8.13-3.43c.72-.14.72-.53.34-1a3.35,3.35,0,0,0-3.34-1.35c-.39.05-.82.05-1.21.1A19.15,19.15,0,0,0,37,23.36c-.53.29-1.21.67-.92,1.54A3.58,3.58,0,0,0,40.52,26.69Z"/><path class="cls-1" d="M138.88,32.88c-1.5-3.33-4.3-5.12-7.69-6.14-.43-.1-1-.19-1.21.29s.05.87.29,1.26a6.6,6.6,0,0,0,2.37,1.59,3.75,3.75,0,0,1,2,4.7,11.29,11.29,0,0,1-1.93,3.62,76.88,76.88,0,0,1-7.06,7.69,24,24,0,0,1-4.21,3.29c.39-.87.73-1.69,1.16-2.52,2.23-4.44,4.84-8.7,7.4-13,.82-1.25.73-1.83-.34-2.94a6.18,6.18,0,0,0-1.25-1.07c-1.7-1.11-2.52-1.06-3.82.39a48.49,48.49,0,0,0-5.81,7.57c-5.32,2.85-10.64,5.74-16,8.58A58.25,58.25,0,0,1,93,50.73c-1.21.38-1.4.24-1.45-1.07-.1-2.61.87-5,1.93-7.35,4.79,3.58,7.4,2,9.53-.58a23.12,23.12,0,0,0,4.64-9.48,4.72,4.72,0,0,0-2-5.22,6.46,6.46,0,0,0-8.41.24,23.51,23.51,0,0,0-4.69,5.13,58.79,58.79,0,0,0-4,6.6c-4.37,4.11-8.67,8.25-13,12.35A14.53,14.53,0,0,1,73.7,52.9a8.76,8.76,0,0,1,.38-3.67,61.15,61.15,0,0,1,4-10.45c5.17-10.39,11-20.4,16.63-30.61,1.11-2,2.42-3.82,3.44-5.9A1.27,1.27,0,0,0,98.31,1C97.63-.19,94.68-.39,94,.77,91.64,4.55,88.83,8,86.65,11.9a28.67,28.67,0,0,1-3.33,5c-2.56,3.24-5.13,6.43-7.64,9.62-.44.48-.73,1.16-1.26,1.4s-1-.58-1.55-.82A9.2,9.2,0,0,0,63,28a33.45,33.45,0,0,0-7.78,7.65,23.44,23.44,0,0,0-3.68,1.58c-4.84,2.62-9.67,5.32-14.56,7.93-.48.29-1,.54-1.64.88.19-.68.24-1.12.39-1.55.92-2.85,1.84-5.76,2.75-8.66.73-2.32.34-3.14-1.79-4.3-1.64-.87-2.36-.73-3.38.77a29.47,29.47,0,0,0-5,13.4C27.66,50,32.5,53.63,36.56,52a28.39,28.39,0,0,0,5.27-3c3.05-2.14,6.05-4.35,9.08-6.53a28.45,28.45,0,0,0-2.41,6.29,4.1,4.1,0,0,0,1.84,4.74A7,7,0,0,0,59.48,53a78.74,78.74,0,0,0,5.9-6.09c2.08-2.28,4-4.65,6-7.11a1.78,1.78,0,0,1-.24,1.06,68.32,68.32,0,0,0-2.41,6.72,12.79,12.79,0,0,0-.59,3.82c.2,3.39,1.89,5,5.28,5.22a5.57,5.57,0,0,0,3.48-.87,19.62,19.62,0,0,0,3.48-2.7c1.85-1.88,3.63-3.81,5.37-5.77a6,6,0,0,0,2.17,5.14,10.07,10.07,0,0,0,7.5,2.46A17.11,17.11,0,0,0,102,52.61a148,148,0,0,0,13.49-8.23,14.41,14.41,0,0,0-.91,5.91c.24,2.71,1.93,4.3,4.2,5.42,2,1,3.53-.1,5-1.31a8.2,8.2,0,0,0,.68-.58A137.74,137.74,0,0,0,137.19,40a12.2,12.2,0,0,0,1.59-2.56A5.44,5.44,0,0,0,138.88,32.88ZM95.65,38.35a29.11,29.11,0,0,1,7.21-9.09c0-.05.19-.05.29-.1a1.94,1.94,0,0,1-.05,1.26,20.92,20.92,0,0,1-5.52,9.33c-.29.29-.67.92-1.06.48S95.26,39.07,95.65,38.35ZM69,34.62c-3.73,4.31-7.6,8.47-11.71,12.43a4.18,4.18,0,0,1-.48.44,39,39,0,0,1,12-16.64c.87-.68,1-.63,1.11.44A3.89,3.89,0,0,1,69,34.62Z"/></g></g></svg>